# xmcd
#
# Track frame offsets:
#  150
#  20145
#  38378
#  55295
#  66703
#  89788
#  109383
#  141035
#  156290
#  176840
#  192765
#
# Disc length: 2834 seconds
#
# Revision: 1
# Processed by: cddbd v1.5.1PL2 Copyright (c) Steve Scherf et al.
# Submitted via: Collectorz.com_Music_Collector 6.11
#
DISCID=a40b100b
DTITLE=Eddie Burns - Detroit
DYEAR=1993
DGENRE=Blues
TTITLE0=Orange Driver
TTITLE1=When I Get Drunk
TTITLE2=Kidman
TTITLE3=Tommy McClennan - Bottle Up And Go
TTITLE4=Inflation Blues
TTITLE5=Detroit
TTITLE6=Butterfly
TTITLE7=John Lee Hooker - Boom Boom
TTITLE8=Time Out
TTITLE9=New Highway 61
TTITLE10=Blue Jay
EXTD=
EXTT0=
EXTT1=
EXTT2=
EXTT3=
EXTT4=
EXTT5=
EXTT6=
EXTT7=
EXTT8=
EXTT9=
EXTT10=
PLAYORDER=
